<?xml version="1.0" encoding="UTF-8" standalone="no"?>
<svg
   xmlns:dc="http://purl.org/dc/elements/1.1/"
   xmlns:cc="http://creativecommons.org/ns#"
   xmlns:rdf="http://www.w3.org/1999/02/22-rdf-syntax-ns#"
   xmlns:svg="http://www.w3.org/2000/svg"
   xmlns="http://www.w3.org/2000/svg"
   xmlns:sodipodi="http://sodipodi.sourceforge.net/DTD/sodipodi-0.dtd"
   xmlns:inkscape="http://www.inkscape.org/namespaces/inkscape"
   version="1.1"
   id="Capa_1"
   x="0px"
   y="0px"
   viewBox="0 0 512 512"
   style="enable-background:new 0 0 512 512;"
   xml:space="preserve"
   sodipodi:docname="logo-white.svg"
   inkscape:version="1.0.2-2 (e86c870879, 2021-01-15)"><metadata
   id="metadata43"><rdf:RDF><cc:Work
       rdf:about=""><dc:format>image/svg+xml</dc:format><dc:type
         rdf:resource="http://purl.org/dc/dcmitype/StillImage" /><dc:title></dc:title></cc:Work></rdf:RDF></metadata><defs
   id="defs41" /><sodipodi:namedview
   pagecolor="#ffffff"
   bordercolor="#666666"
   borderopacity="1"
   objecttolerance="10"
   gridtolerance="10"
   guidetolerance="10"
   inkscape:pageopacity="0"
   inkscape:pageshadow="2"
   inkscape:window-width="1920"
   inkscape:window-height="1001"
   id="namedview39"
   showgrid="false"
   inkscape:zoom="1.6210938"
   inkscape:cx="256"
   inkscape:cy="254.76627"
   inkscape:window-x="-9"
   inkscape:window-y="-9"
   inkscape:window-maximized="1"
   inkscape:current-layer="Capa_1" />
<g
   id="g6">
	<g
   id="g4">
		<path
   d="M489.31,125.896L278.325,5.905c-13.771-7.869-30.88-7.868-44.625-0.015L22.665,125.91    c-21.543,12.308-29.055,39.85-16.744,61.4c10.942,19.138,33.858,27.325,54.07,20.109v217.156    c-17.46,6.192-30.001,22.866-30.001,42.422v30.001c0,8.284,6.716,15.001,15.001,15.001h422.021    c8.284,0,15.001-6.716,15.001-15.001v-30.001c0-19.556-12.542-36.23-30.001-42.422V207.389c20.888,7.391,43.5-1.568,54.072-20.083    C518.391,165.76,510.878,138.217,489.31,125.896z M452.01,481.997H59.991v-15.001c0-8.271,6.729-15.001,15.001-15.001h362.018    c8.271,0,15.001,6.729,15.001,15.001V481.997z M286.002,360.991c57.9,0,105.005-47.105,105.005-105.005v-30.001    c0-8.284-6.716-15.001-15.001-15.001h-30.001c-38.153,0-71.616,20.456-90.004,50.973c-18.389-30.518-51.851-50.973-90.004-50.973    h-30.001c-8.284,0-15.001,6.716-15.001,15.001v30.001c0,57.9,47.105,105.005,105.005,105.005h15.001v61.003H89.992V191.161    L256,96.788l166.008,94.373v230.833H271.001v-61.003H286.002z M271.001,330.99v-15.001c0-41.357,33.647-75.004,75.004-75.004    h15.001v15.001c0,41.357-33.647,75.004-75.004,75.004H271.001z M240.999,315.989v15.001h-15.001    c-41.357,0-75.004-33.647-75.004-75.004v-15.001h15.001C207.353,240.985,240.999,274.632,240.999,315.989z M480.03,172.427    c-4.054,7.098-13.189,9.735-20.49,5.56c-0.797-0.455,3.13,1.779-196.127-111.495c-4.597-2.613-10.229-2.613-14.827,0    c-11.352,6.452-187.212,106.425-196.193,111.53c-7.139,4.107-16.306,1.606-20.426-5.6c-4.123-7.216-1.589-16.37,5.553-20.449    L248.559,31.953c2.292-1.31,4.86-1.965,7.433-1.965c2.58,0,5.164,0.66,7.475,1.98L474.453,151.96    C481.645,156.069,484.146,165.221,480.03,172.427z"
   id="path2" />
	</g>
</g>
<g
   id="g8">
</g>
<g
   id="g10">
</g>
<g
   id="g12">
</g>
<g
   id="g14">
</g>
<g
   id="g16">
</g>
<g
   id="g18">
</g>
<g
   id="g20">
</g>
<g
   id="g22">
</g>
<g
   id="g24">
</g>
<g
   id="g26">
</g>
<g
   id="g28">
</g>
<g
   id="g30">
</g>
<g
   id="g32">
</g>
<g
   id="g34">
</g>
<g
   id="g36">
</g>
<path
   style="fill:#ffffff;stroke-width:0.58479"
   d="m 42.456767,511.35841 c -3.594893,-0.71453 -5.857855,-2.00499 -8.20622,-4.67963 -3.672227,-4.18243 -3.716476,-4.49241 -3.706489,-25.96499 0.0071,-15.20358 0.215868,-20.48236 0.929974,-23.5115 3.209423,-13.61393 12.479496,-24.86494 25.457966,-30.8981 l 3.21258,-1.49339 V 315.96719 207.12358 l -1.387951,0.4038 c -15.230066,4.43094 -30.116401,1.52217 -42.18484,-8.24286 C 6.8803306,191.4428 0.30843373,177.59355 0.30843373,165.01205 c 0,-12.92591 6.85505077,-27.01735 16.96385527,-34.87139 C 20.424951,127.6912 227.68504,9.3775471 237.09048,4.6582667 248.21951,-0.92584595 264.07824,-0.79608209 275.50593,4.9726006 285.67025,10.10353 491.48409,127.61171 494.72771,130.13596 c 12.6801,9.8679 19.24596,27.52377 16.07468,43.22548 -2.77197,13.7246 -11.66566,25.33806 -24.09396,31.46208 -10.59393,5.22015 -21.89861,6.13595 -33.46506,2.71104 l -1.38795,-0.41098 V 315.96719 424.8108 l 3.21258,1.49339 c 13.02289,6.05381 22.23756,17.23758 25.45797,30.8981 1.28715,5.45994 1.36099,42.10711 0.091,45.14673 -1.29674,3.10352 -4.70593,6.63069 -7.78801,8.05748 l -2.77591,1.28507 -212.51084,0.0893 C 140.6612,511.82995 43.872774,511.63986 42.456767,511.35841 Z M 452.3728,472.6747 c -0.22184,-9.42194 -0.28441,-9.81688 -2.06945,-13.06363 -1.95731,-3.56005 -5.50363,-6.33284 -9.53025,-7.45148 -2.99329,-0.83157 -366.552914,-0.83157 -369.546201,0 -4.018633,1.11642 -7.572943,3.89257 -9.540152,7.45148 -1.801514,3.25916 -1.856131,3.60568 -2.059016,13.06363 l -0.208413,9.71566 H 256.01044 452.60156 Z M 241.50361,391.71084 v -30.84337 h -9.18765 c -20.68639,0 -35.48412,-3.03527 -51.11685,-10.48494 -21.11329,-10.0614 -38.24646,-26.88092 -48.76131,-47.86866 -5.73244,-11.44202 -9.2503,-23.60638 -10.57152,-36.55513 -1.00814,-9.88035 -0.85419,-40.55049 0.22148,-44.12466 1.20534,-4.00505 3.33129,-6.56734 7.22601,-8.7091 l 3.31274,-1.82171 13.57108,-0.22946 c 16.38006,-0.27697 32.35639,0.6622 40.71325,2.39333 17.52149,3.62959 34.99385,12.38008 48.23578,24.1574 7.2619,6.4587 12.14809,12.18447 20.13514,23.59484 0.80467,1.14956 0.93237,1.07285 2.56731,-1.54217 3.0212,-4.83228 9.36866,-12.63641 14.23923,-17.50698 14.53357,-14.53357 33.07677,-24.5758 53.00086,-28.70309 8.35686,-1.73113 24.33319,-2.6703 40.71325,-2.39333 l 13.57108,0.22946 3.24123,1.7828 c 3.79679,2.08837 6.14661,4.92384 7.32478,8.83858 1.04866,3.48444 1.1847,34.32679 0.19422,44.03409 -3.73205,36.57643 -26.24114,68.65798 -59.18432,84.35365 -15.79399,7.52499 -30.51094,10.55508 -51.26536,10.55508 h -9.18765 v 30.84337 30.84338 h 75.87469 75.8747 V 306.71007 190.86591 l -52.57827,-29.89078 c -28.91805,-16.43994 -66.32326,-37.70974 -83.12269,-47.26622 l -30.54442,-17.375438 -3.43441,1.953749 c -1.88893,1.074559 -39.29433,22.343249 -83.1231,47.263749 L 89.754217,190.86099 V 306.7076 422.55422 h 75.874703 75.87469 z M 241.3334,319.0747 c -0.38391,-13.4147 -1.30002,-19.42062 -4.24022,-27.79836 -5.01392,-14.28659 -14.10202,-26.65535 -26.42624,-35.96572 -2.20898,-1.66878 -7.34742,-4.69168 -11.41875,-6.71755 -12.01224,-5.97724 -21.94355,-8.00003 -39.3253,-8.0097 l -9.09879,-0.005 0.002,10.9494 c 0.004,17.00538 2.16592,27.02661 8.46029,39.21366 10.53356,20.39494 31.29964,35.71354 53.22398,39.26197 2.54458,0.41184 5.04289,0.83038 5.55181,0.93009 0.50891,0.0997 6.03148,0.21349 12.27235,0.25284 l 11.34706,0.0716 -0.34866,-12.18313 z m 60.20636,10.68781 c 22.54324,-5.20718 40.96369,-19.2533 51.17338,-39.02114 6.29437,-12.18705 8.45643,-22.20828 8.46028,-39.21366 l 0.002,-10.9494 -9.09879,0.005 c -16.95662,0.009 -27.19938,2.03718 -38.74037,7.66939 -18.29715,8.92933 -31.75018,23.99044 -38.42992,43.02358 -2.94484,8.39096 -3.85622,14.37939 -4.24221,27.87467 l -0.35064,12.25944 13.50807,-0.33779 c 8.98632,-0.22471 14.91723,-0.66328 17.71772,-1.31016 z M 50.448729,179.28883 c 1.091753,-0.46006 46.487793,-26.13794 100.880091,-57.06196 58.34489,-33.1712 100.04384,-56.514736 101.6967,-56.93093 2.06861,-0.520883 3.57461,-0.527027 5.75606,-0.0235 1.98497,0.458191 35.41233,19.139529 101.86956,56.9312 54.40332,30.93708 99.87548,56.65357 101.04925,57.14775 1.39723,0.58826 3.55264,0.81836 6.2423,0.66638 5.2753,-0.29808 9.28697,-2.62456 11.94828,-6.92914 3.54544,-5.73462 2.59565,-14.70199 -2.01766,-19.04943 C 475.4984,151.80117 262.70653,30.952942 259.72392,30.148359 c -3.16489,-0.853757 -7.5807,-0.33961 -10.68501,1.244089 -6.8602,3.499812 -213.478068,121.303372 -214.730188,122.428812 -2.457498,2.20886 -4.377857,7.0513 -4.384624,11.05639 -0.01048,6.20335 2.85532,11.01964 8.117121,13.64171 3.682877,1.83526 9.083519,2.17018 12.40751,0.76947 z"
   id="path868" /></svg>
