<?xml version="1.0" encoding="utf-8"?>
<!-- Generator: Adobe Illustrator 23.0.5, SVG Export Plug-In . SVG Version: 6.00 Build 0)  -->
<svg version="1.1" id="Capa_1" xmlns="http://www.w3.org/2000/svg" xmlns:xlink="http://www.w3.org/1999/xlink" x="0px" y="0px"
	 viewBox="0 0 512 512" style="enable-background:new 0 0 512 512;" xml:space="preserve">
<style type="text/css">
	.st0{fill:url(#SVGID_1_);}
</style>
<g>
	<g>
		<linearGradient id="SVGID_1_" gradientUnits="userSpaceOnUse" x1="-5.605" y1="162.6335" x2="506.6352" y2="458.3755">
			<stop  offset="0" style="stop-color:#62AA2A"/>
			<stop  offset="1" style="stop-color:#73E0EA"/>
		</linearGradient>
		<path class="st0" d="M489.3,125.9l-211-120c-13.8-7.9-30.9-7.9-44.6,0l-211,120C1.1,138.2-6.4,165.8,5.9,187.3
			c10.9,19.1,33.9,27.3,54.1,20.1v217.2c-17.5,6.2-30,22.9-30,42.4v30c0,8.3,6.7,15,15,15h422c8.3,0,15-6.7,15-15v-30
			c0-19.6-12.5-36.2-30-42.4V207.4c20.9,7.4,43.5-1.6,54.1-20.1C518.4,165.8,510.9,138.2,489.3,125.9z M452,482H60v-15
			c0-8.3,6.7-15,15-15h362c8.3,0,15,6.7,15,15L452,482L452,482z M286,361c57.9,0,105-47.1,105-105v-30c0-8.3-6.7-15-15-15h-30
			c-38.2,0-71.6,20.5-90,51c-18.4-30.5-51.9-51-90-51h-30c-8.3,0-15,6.7-15,15v30c0,57.9,47.1,105,105,105h15v61H90V191.2l166-94.4
			l166,94.4V422H271v-61L286,361L286,361z M271,331v-15c0-41.4,33.6-75,75-75h15v15c0,41.4-33.6,75-75,75H271z M241,316v15h-15
			c-41.4,0-75-33.6-75-75v-15h15C207.4,241,241,274.6,241,316z M480,172.4c-4.1,7.1-13.2,9.7-20.5,5.6c-0.8-0.5,3.1,1.8-196.1-111.5
			c-4.6-2.6-10.2-2.6-14.8,0C237.2,72.9,61.4,172.9,52.4,178c-7.1,4.1-16.3,1.6-20.4-5.6c-4.1-7.2-1.6-16.4,5.6-20.4l211-120
			c2.3-1.3,4.9-2,7.4-2c2.6,0,5.2,0.7,7.5,2l211,120C481.6,156.1,484.1,165.2,480,172.4z"/>
	</g>
</g>
</svg>
